<svg xmlns="http://www.w3.org/2000/svg" width="256" height="256"><path fill="#1976D2" fill-opacity=".016" fill-rule="evenodd" d="M0 128.004v128.004l128.25-.254 128.25-.254.254-127.75L257.008 0H0zm.485.496c0 70.4.119 99.053.265 63.672s.146-92.98 0-128S.485 58.1.485 128.5"/><path fill="#1976D2" fill-opacity=".354" fill-rule="evenodd" d="M108.437 2.559C86.92 6.176 66.508 15.826 49.609 30.371c-6.697 5.765-24 25.525-29.212 33.361C.582 93.523-4.57 132.479 6.586 168.171c13.285 42.504 50.938 75.247 97.204 84.527 10.719 2.15 37.694 2.416 46.71.462 26.74-5.798 44.928-15.554 65.954-35.38 23.94-22.573 34.935-44.373 38.947-77.216 1.27-10.389 1.274-13.427.032-23.433-4.198-33.842-17.153-59.608-41.476-82.49C195.619 17.39 172.758 6.062 149 2.455c-11.613-1.764-29.728-1.717-40.563.104m-6.591 8.006c-26.962 4.879-55.761 22.082-70.691 42.228C21.249 66.159 13.995 82.294 10.38 99c-2.577 11.908-2.574 38.112.005 50 11.564 53.307 54.618 91.637 110.597 98.462 6.659.812 6.354.338-1.482-2.301-28.952-9.751-50.426-37.162-50.485-64.443-.02-8.972-4.458-20.781-10.104-26.885l-4.008-4.333 2.442 4c2.588 4.238 6.181 14.308 5.388 15.1-.258.259-2.93-.45-5.937-1.575-8.689-3.251-12.025-8.123-14.267-20.837-.746-4.228-1.685-8.988-2.086-10.576l-.729-2.888 3.893.722c5.582 1.036 15.178 6.406 17.956 10.048 3.485 4.569 6.21 11.288 7 17.258l.695 5.252 4.308-8.812c2.959-6.054 6.411-11.083 11.03-16.073 10.748-11.609 18.924-16.485 46.117-27.503 8.706-3.527 17.481-7.388 19.5-8.579 3.734-2.203 7.021-7.663 8.15-13.537.447-2.326.122-1.994-1.448 1.477l-2.025 4.476-2.075-3.276c-3.064-4.84-2.826-9.807.75-15.626 1.66-2.702 3.512-5.077 4.115-5.278s2.047 1.598 3.208 3.997c2.725 5.628 2.742 12.576.042 17.867-1.138 2.231-1.866 4.26-1.617 4.509.856.856 10.537-9.373 14.011-14.803 3.934-6.151 6.714-14.483 6.597-19.775-.088-3.977-.121-3.919-2.399 4.262-1.398 5.017-1.836 5.655-3.139 4.573-3.069-2.548-4.614-7.1-4.18-12.317.391-4.688 2.162-8.456 9.679-20.586.799-1.289 1.161-1.219 2.579.5 7.558 9.167 7.358 24.115-.443 33-.965 1.1-2.038 3.196-2.382 4.657-.345 1.462-.931 3.487-1.301 4.5-.63 1.722-.549 1.736 1.245.214 3.305-2.805 7.735-4.613 12.92-5.272 6.959-.886 7.935.014 5.454 5.03-3.373 6.818-7.098 9.636-13.432 10.161-6.596.547-6.974-.447-1.794-4.717 2.05-1.69 3.21-3.073 2.578-3.073-2.171 0-9.791 6.591-12.769 11.045-4.027 6.023-11.197 12.755-17.872 16.782-3.033 1.829-13.392 6.841-23.02 11.136-22.936 10.233-27.852 13.121-35.706 20.976C80.09 161.788 75.954 180.912 84.14 200.5c5.488 13.132 19.681 28.947 32.325 36.018 11.659 6.519 20.326 8.816 33.535 8.885 13.651.071 22.313-2.043 36.442-8.895 17.96-8.709 28.415-17.336 38.792-32.008 9.95-14.069 18.195-34.278 20.809-51 1.936-12.387 1.517-31.229-.961-43.234-5.339-25.858-15.886-45.26-34.987-64.361-19.467-19.467-40.984-30.911-66.48-35.357-10.855-1.893-31.262-1.885-41.769.017m1.654 4.978c-42.244 7.884-75.504 37.933-85.976 77.674-4.642 17.619-5.459 30.731-2.961 47.552C19.955 177.086 40.82 207.51 73 225.981c8.346 4.791 18 9.361 18 8.522 0-1.038-8.946-9.503-10.042-9.503-2.312 0-18.471-9.895-25.076-15.355-13.494-11.156-26.45-32.204-31.623-51.371-2.373-8.796-2.643-11.575-2.698-27.774-.074-21.785 1.653-29.971 9.914-47C64.155 16.139 152.247.813 204.579 53.384c9.578 9.621 15.14 17.594 20.925 29.993 17.986 38.551 11.551 84.046-16.409 116.011-19.941 22.796-45.665 35.205-75.41 36.377-7.048.278-12.448.839-12 1.246s3.965 1.81 7.815 3.115c14.055 4.766 34.22 2.36 52.223-6.233 15.205-7.256 32.316-21.697 41.186-34.759 13.901-20.471 19.831-42.017 18.821-68.387-1.296-33.805-13.904-60.796-39.681-84.946-14.808-13.873-31.913-23.276-51.736-28.441-12.546-3.269-34.471-4.12-46.813-1.817M120.4 56.4c-4.311 4.311-4.617 9.345-.9 14.815 2.446 3.599 2.5 4.083 2.5 22.34v18.662l2.308-.58c1.27-.318 3.918-1.251 5.885-2.073l3.576-1.494.669-16.285c.605-14.734.915-16.79 3.259-21.583 2.328-4.762 2.472-5.694 1.423-9.197C137.53 55.7 133.869 53 128.265 53c-3.745 0-5.014.549-7.865 3.4M89.092 73.181c-2.974 1.142-10.351 5.448-16.393 9.569C56.588 93.738 45.869 98 34.349 98c-2.892 0-5.552.519-5.948 1.161-1.176 1.903 5.98 7.578 11.696 9.275 6.557 1.947 11.191 1.977 17.494.111 4.061-1.202 4.589-1.214 3.059-.067-1.017.762-4.055 1.951-6.75 2.642s-4.9 1.588-4.9 1.994c0 1.494 5.303 4.85 8.655 5.479 2.345.44 5.2.004 8.899-1.358 6.438-2.372 7.005-2.073 1.446.763-2.2 1.122-4 2.43-4 2.906 0 .477 1.619 1.634 3.597 2.573 4.702 2.231 8.812 1.423 15.589-3.064l5.314-3.518-4.25 3.937C81.912 123 80 125.059 80 125.411c0 .351 1.19 1.091 2.644 1.644 3.362 1.278 7.709-.091 13.527-4.26 2.387-1.711 3.544-2.213 2.579-1.12-.963 1.09-1.75 2.209-1.75 2.485s5.437-2.21 12.081-5.525l12.081-6.026-.331-11.336-.331-11.335-3.115-2.436c-1.713-1.339-3.671-3.913-4.351-5.719-2.362-6.274-3.479-7.962-6.199-9.368-3.858-1.995-11.401-1.67-17.743.766m59.038.363c-1.663 1.399-3.322 3.537-3.688 4.75-1.52 5.046-3.685 8.496-5.99 9.546-2.339 1.066-2.452 1.533-2.452 10.139 0 4.961.238 9.021.529 9.021.8 0 12.798-6.095 14.174-7.2.92-.74.723-2.178-.842-6.133-2.367-5.983-2.09-10.498 1.042-16.966 3.209-6.63 2.421-7.527-2.773-3.157m14.87.323c0 .476.962 3.18 2.137 6.008 2.336 5.622 3.523 5.617 6.441-.026 1.423-2.752 1.384-2.828-2.526-4.823-4.289-2.188-6.052-2.525-6.052-1.159m29.158 20.88c-3.12 1.843-5.506 2.408-10.072 2.386-5.092-.024-6.078.266-6.61 1.943-.993 3.129-11.052 13.444-16.551 16.972l-5.02 3.222 2.297 2.462c4.786 5.129 13.756 7.91 16.539 5.127.855-.855-.036-2.243-3.55-5.534l-4.691-4.394 5.964 3.702c6.475 4.019 13.658 5.442 17.39 3.445 2.903-1.554 2.712-2.316-1.104-4.389-1.787-.971-4.375-2.655-5.75-3.742-2.057-1.626-1.525-1.532 3 .529 6.511 2.965 13.071 3.247 17.94.772 4.765-2.421 4.881-3.929.361-4.719-2.09-.366-5.376-1.562-7.301-2.658-1.925-1.097-2.6-1.684-1.5-1.306s5.432.91 9.627 1.182c10.909.709 19.511-2.465 22.667-8.363 1.042-1.945.69-2.079-8.244-3.124-5.133-.601-12.024-2.18-15.317-3.51l-5.986-2.418zm-44.08 27.159-3.421 1.823 2.421 1.568c3.305 2.139 7.468 3.057 9.271 2.043 1.24-.698 1.001-1.391-1.414-4.09-1.599-1.787-3.026-3.231-3.171-3.208s-1.804.862-3.686 1.864M.195 129.5c.02 1.65.244 2.204.498 1.231s.237-2.323-.037-3-.481.119-.461 1.769M130 130c0 .55.45 1 1 1s1-.45 1-1-.45-1-1-1-1 .45-1 1m-13.789 6.073C106.055 141.281 101 145.776 101 149.601c0 3.2 2.884 11.399 4.009 11.399.405 0 2.823-.923 5.372-2.05 4.017-1.777 4.501-2.302 3.627-3.935-1.795-3.355-1.166-7.947 1.447-10.56 2.378-2.379 2.899-2.455 16.852-2.455 17.248 0 19.402.917 24.068 10.25 4.892 9.785 6.404 7.698 6.706-9.25l.187-10.5-19.516-.271-19.516-.27zM124 149v5h9v-10h-9zm-.237 8.017c-12.467 2.142-21.507 6.794-29.216 15.037-9.136 9.767-11.689 20.022-7.371 29.613l2.175 4.833.726-6.59c1.215-11.02 7.359-20.139 17.923-26.601 5.413-3.312 15.433-5.464 27.5-5.907 12.397-.456 13.813-1.244 13.295-7.402l-.295-3.5-10-.149c-5.5-.081-12.131.218-14.737.666M124 173.5c0 3.481.024 3.5 4.5 3.5s4.5-.019 4.5-3.5-.024-3.5-4.5-3.5-4.5.019-4.5 3.5m32.831-.378c-.369.892-2.805 2.655-5.415 3.919-4.247 2.056-6.485 2.333-21.331 2.641-9.122.189-18.655.817-21.184 1.394-6.307 1.441-11.339 5.827-13.305 11.596-2.44 7.161-2.01 8.061 1.919 4.016 5.434-5.596 10.641-6.687 31.917-6.692 16.372-.003 18.379-.193 21.386-2.026 3.789-2.311 7.478-9.565 6.995-13.756-.231-2.004-.488-2.29-.982-1.092m-31.618 29.562.287 9.816 2.75.316 2.75.317v-9.067c0-4.986.113-9.404.25-9.816s-1.229-.892-3.037-1.066l-3.287-.316zm45.181-5.434c-5.065 8.183-11.639 13.846-19.394 16.706-2.3.849-11.966 1.506-28.196 1.918l-24.697.626 3.666 4.75 3.666 4.75h56.093l3.097-4.75c5.794-8.886 11.371-21.837 11.371-26.407 0-3.226-2.885-1.988-5.606 2.407"/><path fill="#1976D2" fill-opacity=".204" fill-rule="evenodd" d="M110.5 2.538c-17.508 2.829-35.134 9.761-49.67 19.535C54.391 26.403 35 44.601 35 46.314c0 .517 3.273-2.154 7.274-5.937C58.536 25.001 80.714 13.875 103 9.91c10.634-1.891 33.609-1.629 43.334.495 50.268 10.978 88.395 49.231 99.268 99.595 2.554 11.833 2.594 36.249.078 48-4.578 21.38-13.391 39.487-26.892 55.25-6.895 8.049-4.387 7.189 3.54-1.215 29.181-30.933 39.705-72.374 29.085-114.535-11.795-46.831-51.389-84.64-98.438-94.002-11.199-2.228-31.754-2.693-42.475-.96m1.72 12.512c-18.161 1.805-35.27 7.876-50.364 17.872-22.907 15.17-38.13 36.965-44.943 64.346-3.015 12.118-3.665 32.554-1.456 45.768 6.526 39.026 32.533 72.336 69.043 88.43l6 2.645-3.475-3.585c-1.911-1.972-5.8-4.65-8.642-5.951-15.568-7.127-31.497-21.028-41.295-36.038-20.336-31.152-22.564-72.848-5.688-106.475 15.214-30.313 42.9-51.554 77.1-59.15 7.953-1.766 31.148-1.779 40-.023 21.482 4.264 41.301 14.797 56.55 30.056 15.685 15.694 26.385 36.851 29.977 59.27 1.775 11.077.771 32.005-2.051 42.785-8.987 34.319-33.329 61.859-66.184 74.877-9.956 3.944-20.544 6.15-33.443 6.966l-10.849.686 8.5 2.354c34.046 9.427 80.056-15.547 99.104-53.794 4.768-9.574 8.74-23.126 10.543-35.975 5.094-36.292-8.275-73.991-35.956-101.393-11.723-11.605-27.052-21.436-41.858-26.844-16.137-5.894-34.747-8.404-50.613-6.827m10.133 39.876c-5.919 3.61-6.568 12.022-1.356 17.571 1.775 1.89 1.983 3.812 2.23 20.68l.273 18.596 5.249-2.136 5.249-2.137.032-16c.031-15.226.152-16.193 2.496-20 3.646-5.919 3.345-10.829-.926-15.1-3.996-3.996-8.321-4.477-13.247-1.474M90.655 73.025c-3.216 1.135-11.091 5.577-17.5 9.871s-13.482 8.74-15.715 9.88c-4.964 2.532-13.842 4.828-22.19 5.739-6.577.717-7.674 1.886-4.482 4.775 5.916 5.354 18.719 7.273 28.628 4.291 7.199-2.166 4.081.528-3.852 3.328-3.599 1.271-6.544 2.493-6.544 2.715 0 .223 1.462 1.297 3.25 2.387 4.868 2.968 11.333 2.612 18.398-1.013 5.639-2.893 5.743-2.909 2.852-.447-1.65 1.405-4.526 3.361-6.391 4.346l-3.392 1.792 2.364 1.655c4.353 3.049 10.023 2.152 17.321-2.742 6.893-4.623 7.613-3.085.896 1.914-2.089 1.555-4.01 3-4.269 3.21-1.048.851 2.696 2.244 6.071 2.259 2.529.01 4.878-.952 7.897-3.235 2.363-1.787 5.243-3.91 6.4-4.716 2.018-1.406 2.038-1.386.505.5-3.317 4.081-2.503 3.944 8.157-1.372L120 112.705V89.431l-2.937-1.735c-1.978-1.168-3.575-3.442-4.887-6.959-1.071-2.874-3.073-6.064-4.448-7.091-3.739-2.791-10.256-3.029-17.073-.621m58.827-.175c-1.962 1.187-3.614 3.57-5.001 7.211-1.423 3.738-3.061 6.064-5.237 7.439-3.157 1.994-3.167 2.028-3.205 10.763l-.039 8.762 7.045-3.548c3.875-1.951 7.282-4.166 7.572-4.922s-.18-2.743-1.045-4.415c-2.411-4.663-2.007-12.024.967-17.618 1.397-2.627 2.39-4.927 2.206-5.11-.183-.184-1.652.464-3.263 1.438m-33.535 63.704c-3.604 1.923-8.216 4.868-10.25 6.544-3.081 2.54-3.697 3.682-3.697 6.853 0 2.092.678 5.427 1.507 7.411l1.506 3.606 4.359-2.118c4.316-2.097 4.348-2.151 3.304-5.554-.866-2.823-.724-4.051.797-6.875 2.545-4.726 6.528-5.722 21.116-5.281 14.77.447 17.566 1.755 21.73 10.166 1.55 3.132 3.397 5.694 4.103 5.694 1.284 0 2.578-9.863 2.578-19.651V133l-20.25.029-20.25.029zm2.004 22.335c-13.324 3.597-24.274 11.941-29.388 22.394-3.682 7.524-4.128 11.509-2 17.865l1.793 5.352 1.244-6.67c1.438-7.71 2.358-9.714 7.213-15.718C105.186 171.755 117.625 167 136.34 167c11.505 0 11.66-.087 11.66-6.582V157l-11.75.06c-7.931.041-13.879.635-18.299 1.829m52.534 38.769c-3.116 5.786-10.047 12.247-16.265 15.161-5.647 2.647-6.036 2.685-30.47 3.008-13.612.18-24.743.63-24.735 1s1.471 2.39 3.25 4.488l3.235 3.814 28-.088c32.28-.101 28.474 1.194 35.387-12.041 3.068-5.873 7.113-16.497 7.113-18.682 0-.175-.798-.318-1.773-.318-1.014 0-2.614 1.564-3.742 3.658"/><path fill="#1976D2" fill-opacity=".38" fill-rule="evenodd" d="M122 1.614c-34.192 3.815-56.202 13.594-76.997 34.21-7.319 7.256-7.668 7.74-2.503 3.473C67.144 18.937 89.269 9.749 117 8.358c35.362-1.775 67.577 10.962 93.624 37.016 19.76 19.765 31.336 42.042 35.968 69.221 2.444 14.333 1.55 35.429-2.093 49.405-4.946 18.979-14.802 37.833-26.267 50.249-2.603 2.818-3.689 4.413-2.414 3.545 3.452-2.35 14.488-14.882 19.147-21.742 18.709-27.551 24.873-64.178 16.418-97.552-5.928-23.397-16.594-41.963-34.257-59.626-23.614-23.613-50.06-35.448-83.126-37.2-4.675-.248-10.075-.274-12-.06m2.388 52.366c-6.347 2.565-8.234 11.021-3.888 17.425 2.437 3.591 2.5 4.136 2.5 21.639 0 10.222.395 17.956.917 17.956.504 0 2.979-.884 5.5-1.964l4.583-1.965V90.94c0-14.688.184-16.39 2.061-19.026 4.651-6.531 2.961-14.753-3.595-17.493-3.825-1.598-5.049-1.665-8.078-.441M93.5 72.492c-2.75.781-5.287 1.44-5.637 1.464s-7.352 4.454-15.56 9.845C55.977 94.523 48.797 97.475 36.25 98.624c-3.987.365-7.25.97-7.25 1.345 0 1.39 4.636 4.969 9 6.947 5.75 2.607 14.65 2.657 21.989.124 3.019-1.042 5.658-1.727 5.863-1.521.727.727-6.425 4.527-11.648 6.189l-5.296 1.686 3.796 2.298c5.269 3.189 9.83 2.924 17.681-1.027 4.876-2.454 6.163-2.823 4.872-1.396-.965 1.066-3.668 3.059-6.006 4.43S65 120.525 65 120.935c0 1.135 4.782 3.065 7.597 3.065 2.991 0 7.219-2.05 13.653-6.622 6.299-4.475 6.052-2.734-.44 3.103-4.101 3.687-4.888 4.857-3.75 5.577 3.671 2.323 9.327.297 16-5.731 4.261-3.85 5.242-3.252 1.813 1.107l-2.126 2.703 4.876-2.947c2.683-1.621 7.69-4.188 11.127-5.705l6.25-2.758v-22.49l-3.415-2.604c-2.3-1.755-3.963-4.255-5.093-7.657-2.572-7.745-8.455-10.192-17.992-7.484m55.26.893c-.957.726-2.839 3.805-4.181 6.841s-3.546 6.39-4.896 7.451c-2.179 1.714-2.495 2.848-2.826 10.127-.204 4.508-.246 8.196-.092 8.196 1.182 0 13.108-5.986 13.64-6.846.372-.603-.101-2.571-1.052-4.375-2.643-5.013-2.29-12.409.862-18.049 2.624-4.694 2.053-6.009-1.455-3.345m-32.112 63.229c-3.768 1.934-6.575 3.793-6.237 4.131s8.218.51 17.511.383c12.894-.176 17.715.111 20.355 1.214 3.708 1.55 7.611 6.147 9.684 11.408 2.237 5.674 4.038 4.116 4.048-3.5.004-3.713.292-9.113.639-12l.631-5.25-19.89.049-19.889.049zm53.386 62.333c-4.025 6.272-9.993 11.679-15.912 14.416-4.266 1.973-6.564 2.161-29.872 2.449-13.888.172-25.25.54-25.25.818s1.462 2.266 3.25 4.419l3.25 3.915 28 .009 28 .01 3.697-5.742c4.268-6.628 6.986-12.561 9.16-19.991 2.046-6.998.062-7.137-4.323-.303"/></svg>